<?xml version="1.0" encoding="UTF-8" standalone="no"?>
<svg
   viewBox="0 -256 2337.0042 2337.0042"
   id="svg2989"
   version="1.1"
   inkscape:version="1.4 (e7c3feb1, 2024-10-09)"
   width="2337.0042"
   height="2337.0042"
   sodipodi:docname="fullwidth.svg"
   xmlns:inkscape="http://www.inkscape.org/namespaces/inkscape"
   xmlns:sodipodi="http://sodipodi.sourceforge.net/DTD/sodipodi-0.dtd"
   xmlns="http://www.w3.org/2000/svg"
   xmlns:svg="http://www.w3.org/2000/svg">
  <defs
     id="defs2997" />
  <sodipodi:namedview
     pagecolor="#ffffff"
     bordercolor="#666666"
     borderopacity="1"
     objecttolerance="10"
     gridtolerance="10"
     guidetolerance="10"
     inkscape:pageopacity="0"
     inkscape:pageshadow="2"
     inkscape:window-width="1200"
     inkscape:window-height="730"
     id="namedview2995"
     showgrid="false"
     inkscape:zoom="0.046561719"
     inkscape:cx="408.06053"
     inkscape:cy="1600.0268"
     inkscape:window-x="0"
     inkscape:window-y="25"
     inkscape:window-maximized="0"
     inkscape:current-layer="svg2989"
     inkscape:showpageshadow="2"
     inkscape:pagecheckerboard="true"
     inkscape:deskcolor="#d1d1d1"
     showguides="true">
    <sodipodi:guide
       position="272.56987,-271.72877"
       orientation="1,0"
       id="guide1"
       inkscape:locked="false" />
    <sodipodi:guide
       position="273.42701,-271.72877"
       orientation="1,0"
       id="guide2"
       inkscape:locked="false" />
    <sodipodi:guide
       position="273.2663,-271.56805"
       orientation="0,-1"
       id="guide3"
       inkscape:locked="false" />
    <sodipodi:guide
       position="2159.4173,-530.67154"
       orientation="0,-1"
       id="guide4"
       inkscape:locked="false" />
  </sodipodi:namedview>
  <circle
     style="fill:#ffffff;stroke:#000000;stroke-width:10;stroke-linecap:round;stroke-linejoin:round;paint-order:markers stroke fill"
     id="path1"
     cx="1168.5021"
     cy="912.50208"
     r="1168.0021" />
  <g
     transform="matrix(0.69600183,0.71804001,0.71804001,-0.69600183,167.91981,796.65604)"
     id="g2991">
    <path
       d="M 1078.3411,798.09709 928,640 768,480 620.54137,324.67619 l 144,-144 c 20.66667,-20 25.33333,-43 14,-69 -11.33333,-26.66667 -31,-40.000004 -59,-40.000004 h -448 c -17.33333,0 -32.33333,6.333334 -45,19 -12.66667,12.666664 -19,27.666664 -19,45.000004 v 448 c 0,28 13.33333,47.66666 40,59 26,11.33333 49,6.66666 69,-14 l 144,-144 L 608,640 l 160,160 150.34115,158.09709 -144,144.00001 c -20.66667,20 -25.33334,43 -14,69 11.33333,26.6667 31,40 59,40 h 447.99995 c 17.3334,0 32.3334,-6.3333 45,-19 12.6667,-12.6667 19,-27.6667 19,-45 V 699.09709 c 0,-28 -13,-47.66666 -39,-59 -8.6666,-3.33333 -17,-5 -25,-5 -17.3333,0 -32.3333,6.33334 -45,19 z"
       id="path2993"
       inkscape:connector-curvature="0"
       style="fill:currentColor"
       sodipodi:nodetypes="ccccccsssssccccccccssssscssc" />
  </g>
</svg>
