<?xml version="1.0" encoding="UTF-8" standalone="no"?>
<svg
   viewBox="0 -256 2337.0042 2337.0042"
   id="svg2989"
   version="1.1"
   inkscape:version="1.4 (e7c3feb1, 2024-10-09)"
   width="2337.0042"
   height="2337.0042"
   sodipodi:docname="fullscreen.svg"
   xmlns:inkscape="http://www.inkscape.org/namespaces/inkscape"
   xmlns:sodipodi="http://sodipodi.sourceforge.net/DTD/sodipodi-0.dtd"
   xmlns="http://www.w3.org/2000/svg"
   xmlns:svg="http://www.w3.org/2000/svg">
  <defs
     id="defs2997" />
  <sodipodi:namedview
     pagecolor="#ffffff"
     bordercolor="#666666"
     borderopacity="1"
     objecttolerance="10"
     gridtolerance="10"
     guidetolerance="10"
     inkscape:pageopacity="0"
     inkscape:pageshadow="2"
     inkscape:window-width="1472"
     inkscape:window-height="820"
     id="namedview2995"
     showgrid="false"
     inkscape:zoom="0.13169643"
     inkscape:cx="1161.7627"
     inkscape:cy="1780.6102"
     inkscape:window-x="412"
     inkscape:window-y="185"
     inkscape:window-maximized="0"
     inkscape:current-layer="svg2989"
     inkscape:showpageshadow="2"
     inkscape:pagecheckerboard="0"
     inkscape:deskcolor="#d1d1d1"
     showguides="true">
    <sodipodi:guide
       position="1929.9936,153.26063"
       orientation="1,0"
       id="guide1"
       inkscape:locked="false" />
    <sodipodi:guide
       position="393.9936,-70.739373"
       orientation="1,0"
       id="guide2"
       inkscape:locked="false" />
    <sodipodi:guide
       position="1168.5021,1401.2606"
       orientation="0,-1"
       id="guide3"
       inkscape:locked="false" />
    <sodipodi:guide
       position="1641.9936,-134.73937"
       orientation="0,-1"
       id="guide4"
       inkscape:locked="false" />
  </sodipodi:namedview>
  <circle
     style="fill:#ffffff;stroke:#000000;stroke-width:10;stroke-linecap:round;stroke-linejoin:round;paint-order:markers stroke fill"
     id="path1"
     cx="1168.5021"
     cy="912.50208"
     r="1168.0021" />
  <g
     transform="matrix(1,0,0,-1,393.9936,1542.7394)"
     id="g2991">
    <path
       d="M 1283,995 928,640 1283,285 1427,429 q 29,31 70,14 39,-17 39,-59 V -64 q 0,-26 -19,-45 -19,-19 -45,-19 h -448 q -42,0 -59,40 -17,39 14,69 L 1123,125 768,480 413,125 557,-19 q 31,-30 14,-69 -17,-40 -59,-40 H 64 q -26,0 -45,19 -19,19 -19,45 v 448 q 0,42 40,59 39,17 69,-14 L 253,285 608,640 253,995 109,851 Q 90,832 64,832 52,832 40,837 0,854 0,896 v 448 q 0,26 19,45 19,19 45,19 h 448 q 42,0 59,-40 17,-39 -14,-69 l -144,-144 355,-355 355,355 -144,144 q -31,30 -14,69 17,40 59,40 h 448 q 26,0 45,-19 19,-19 19,-45 V 896 q 0,-42 -39,-59 -13,-5 -25,-5 -26,0 -45,19 z"
       id="path2993"
       inkscape:connector-curvature="0"
       style="fill:currentColor" />
  </g>
</svg>
