<?xml version="1.0" encoding="UTF-8" standalone="no"?>
<svg
   viewBox="0 -256 2337.0042 2337.0042"
   id="svg2989"
   version="1.1"
   inkscape:version="1.4 (e7c3feb1, 2024-10-09)"
   width="2337.0042"
   height="2337.0042"
   sodipodi:docname="zoomin.svg"
   xmlns:inkscape="http://www.inkscape.org/namespaces/inkscape"
   xmlns:sodipodi="http://sodipodi.sourceforge.net/DTD/sodipodi-0.dtd"
   xmlns="http://www.w3.org/2000/svg"
   xmlns:svg="http://www.w3.org/2000/svg">
  <defs
     id="defs2997" />
  <sodipodi:namedview
     pagecolor="#ffffff"
     bordercolor="#666666"
     borderopacity="1"
     objecttolerance="10"
     gridtolerance="10"
     guidetolerance="10"
     inkscape:pageopacity="0"
     inkscape:pageshadow="2"
     inkscape:window-width="1200"
     inkscape:window-height="730"
     id="namedview2995"
     showgrid="false"
     inkscape:zoom="0.13169643"
     inkscape:cx="1097.2203"
     inkscape:cy="1195.9322"
     inkscape:window-x="0"
     inkscape:window-y="25"
     inkscape:window-maximized="0"
     inkscape:current-layer="svg2989"
     inkscape:showpageshadow="2"
     inkscape:pagecheckerboard="true"
     inkscape:deskcolor="#d1d1d1"
     showguides="true">
    <sodipodi:guide
       position="272.56987,-271.72877"
       orientation="1,0"
       id="guide1"
       inkscape:locked="false" />
    <sodipodi:guide
       position="273.42701,-271.72877"
       orientation="1,0"
       id="guide2"
       inkscape:locked="false" />
    <sodipodi:guide
       position="273.2663,-271.56805"
       orientation="0,-1"
       id="guide3"
       inkscape:locked="false" />
    <sodipodi:guide
       position="2159.4173,-530.67154"
       orientation="0,-1"
       id="guide4"
       inkscape:locked="false" />
  </sodipodi:namedview>
  <circle
     style="fill:#ffffff;stroke:#000000;stroke-width:10;stroke-linecap:round;stroke-linejoin:round;paint-order:markers stroke fill"
     id="path1"
     cx="1168.5021"
     cy="912.50208"
     r="1168.0021" />
  <g
     transform="matrix(2.2187151,0,0,-2.2187151,-393.47336,2474.4775)"
     id="g4"
     style="stroke-width:0.450712">
    <path
       d="m 1024,736 v -64 c 0,-8.66667 -3.1667,-16.16667 -9.5,-22.5 -6.3333,-6.33333 -13.8333,-9.5 -22.5,-9.5 H 768 V 416 c 0,-8.66667 -3.16667,-16.16667 -9.5,-22.5 -6.33333,-6.33333 -13.83333,-9.5 -22.5,-9.5 h -64 c -8.66667,0 -16.16667,3.16667 -22.5,9.5 -6.33333,6.33333 -9.5,13.83333 -9.5,22.5 V 640 H 416 c -8.66667,0 -16.16667,3.16667 -22.5,9.5 -6.33333,6.33333 -9.5,13.83333 -9.5,22.5 v 64 c 0,8.66667 3.16667,16.16667 9.5,22.5 6.33333,6.33333 13.83333,9.5 22.5,9.5 h 224 v 224 c 0,8.6667 3.16667,16.1667 9.5,22.5 6.33333,6.3333 13.83333,9.5 22.5,9.5 h 64 c 8.66667,0 16.16667,-3.1667 22.5,-9.5 6.33333,-6.3333 9.5,-13.8333 9.5,-22.5 V 768 h 224 c 8.6667,0 16.1667,-3.16667 22.5,-9.5 6.3333,-6.33333 9.5,-13.83333 9.5,-22.5 z"
       id="path6"
       inkscape:connector-curvature="0"
       style="fill:currentColor;stroke-width:0.450712"
       sodipodi:nodetypes="sssscsssssscsssssscsssssscsss" />
  </g>
</svg>
